<svg id="visual" viewBox="0 0 900 600" width="900" height="600" xmlns="http://www.w3.org/2000/svg" xmlns:xlink="http://www.w3.org/1999/xlink" version="1.1"><g><g transform="translate(81 335)"><path d="M106.8 -100.1C139.4 -74.2 167.5 -37.1 173 5.5C178.5 48.1 161.3 96.1 128.7 123.4C96.1 150.7 48.1 157.2 2.9 154.2C-42.2 151.3 -84.3 138.9 -110.6 111.6C-136.8 84.3 -147.1 42.2 -149.5 -2.4C-151.9 -47 -146.4 -93.9 -120.2 -119.9C-93.9 -145.8 -47 -150.7 -4.9 -145.7C37.1 -140.8 74.2 -126 106.8 -100.1Z" fill="#06101a"></path></g><g transform="translate(889 141)"><path d="M113 -106.1C146.1 -79.9 172.2 -40 171.1 -1.1C170 37.8 141.7 75.6 108.6 104.6C75.6 133.6 37.8 154 0.8 153.1C-36.1 152.3 -72.2 130.3 -99.1 101.3C-126.1 72.2 -143.9 36.1 -147 -3.2C-150.2 -42.5 -138.8 -84.9 -111.9 -111.1C-84.9 -137.2 -42.5 -147.1 -1.2 -145.8C40 -144.6 79.9 -132.2 113 -106.1Z" fill="#06101a"></path></g><g transform="translate(519 580)"><path d="M100.4 -98.6C127.2 -73.5 144.2 -36.7 145.1 0.8C145.9 38.4 130.6 76.8 103.7 102.9C76.8 128.9 38.4 142.6 1.2 141.4C-36.1 140.2 -72.2 124.2 -102.9 98.2C-133.7 72.2 -159.1 36.1 -162.7 -3.6C-166.3 -43.2 -148 -86.5 -117.2 -111.6C-86.5 -136.6 -43.2 -143.5 -3.2 -140.3C36.7 -137 73.5 -123.6 100.4 -98.6Z" fill="#06101a"></path></g><g transform="translate(462 11)"><path d="M100.5 -105.1C124.2 -76.7 133.3 -38.4 132.3 -1C131.3 36.3 120.2 72.7 96.4 95.1C72.7 117.4 36.3 125.8 -1.3 127.1C-38.9 128.4 -77.8 122.5 -105.8 100.2C-133.8 77.8 -151 38.9 -150 1C-149 -36.9 -129.8 -73.8 -101.8 -102.1C-73.8 -130.5 -36.9 -150.2 0.7 -151C38.4 -151.7 76.7 -133.4 100.5 -105.1Z" fill="#06101a"></path></g></g></svg>