<?xml version="1.0" standalone="no"?>
<!DOCTYPE svg PUBLIC "-//W3C//DTD SVG 20010904//EN"
 "http://www.w3.org/TR/2001/REC-SVG-20010904/DTD/svg10.dtd">
<svg version="1.0" xmlns="http://www.w3.org/2000/svg"
 width="625.000000pt" height="625.000000pt" viewBox="0 0 625.000000 625.000000"
 preserveAspectRatio="xMidYMid meet">
<metadata>
Created by potrace 1.14, written by Peter Selinger 2001-2017
</metadata>
<g transform="translate(0.000000,625.000000) scale(0.100000,-0.100000)"
fill="#000000" stroke="none">
<path d="M0 3125 l0 -3125 3125 0 3125 0 0 3125 0 3125 -3125 0 -3125 0 0
-3125z m3274 979 c45 -44 -13 -216 -172 -511 -33 -62 -58 -113 -55 -113 2 0
66 38 141 84 335 205 657 372 741 383 32 4 41 1 55 -18 19 -28 21 -69 4 -92
-7 -10 -67 -39 -133 -66 -294 -119 -488 -231 -711 -407 -30 -24 -91 -363 -114
-629 -19 -230 -10 -311 36 -342 24 -16 28 -15 61 2 44 24 126 114 223 243 73
98 102 124 128 115 75 -27 -174 -411 -323 -498 -107 -63 -214 -31 -259 76 -28
67 -38 204 -26 360 12 167 26 255 82 507 22 101 38 185 36 187 -7 7 -348 -574
-411 -700 -80 -160 -137 -302 -168 -420 -26 -101 -44 -125 -94 -125 -76 0 -85
102 -25 275 61 174 244 531 378 740 205 316 404 676 467 845 16 41 39 85 51
97 27 27 66 30 88 7z"/>
</g>
</svg>
