<?xml version="1.0" standalone="no"?>
<!DOCTYPE svg PUBLIC "-//W3C//DTD SVG 20010904//EN"
 "http://www.w3.org/TR/2001/REC-SVG-20010904/DTD/svg10.dtd">
<svg version="1.0" xmlns="http://www.w3.org/2000/svg"
 width="625.000000pt" height="625.000000pt" viewBox="0 0 625.000000 625.000000"
 preserveAspectRatio="xMidYMid meet">
<metadata>
Created by potrace 1.14, written by Peter Selinger 2001-2017
</metadata>
<g transform="translate(0.000000,625.000000) scale(0.100000,-0.100000)"
fill="#000000" stroke="none">
<path d="M0 3125 l0 -3125 3125 0 3125 0 0 3125 0 3125 -3125 0 -3125 0 0
-3125z m3520 699 c198 -45 324 -206 290 -371 -19 -89 -89 -153 -168 -153 -57
0 -80 23 -101 105 -40 155 -98 205 -241 205 -250 0 -470 -224 -561 -571 -24
-93 -28 -205 -9 -263 6 -20 31 -53 56 -75 69 -60 162 -76 277 -46 123 32 207
94 309 227 89 118 169 148 230 88 26 -27 30 -36 25 -67 -10 -61 -59 -143 -131
-220 -167 -179 -355 -264 -591 -266 -183 -2 -297 34 -375 119 -85 93 -121 230
-101 388 14 103 63 262 115 363 144 285 416 494 704 543 79 13 200 11 272 -6z"/>
</g>
</svg>
