<?xml version="1.0" standalone="no"?>
<!DOCTYPE svg PUBLIC "-//W3C//DTD SVG 20010904//EN"
 "http://www.w3.org/TR/2001/REC-SVG-20010904/DTD/svg10.dtd">
<svg version="1.0" xmlns="http://www.w3.org/2000/svg"
 width="512.000000pt" height="512.000000pt" viewBox="0 0 512.000000 512.000000"
 preserveAspectRatio="xMidYMid meet">
<metadata>
Created by potrace 1.14, written by Peter Selinger 2001-2017
</metadata>
<g transform="translate(0.000000,512.000000) scale(0.100000,-0.100000)"
fill="#000000" stroke="none">
<path d="M2355 5069 c-430 -33 -895 -195 -1238 -433 -49 -33 -99 -68 -110 -76
-12 -8 -58 -45 -103 -82 -184 -151 -365 -352 -486 -538 -37 -58 -72 -110 -77
-116 -5 -6 -12 -20 -15 -32 -4 -12 -12 -22 -17 -22 -6 0 -7 -4 -4 -10 3 -5 1
-10 -5 -10 -6 0 -8 -4 -5 -10 3 -5 1 -10 -6 -10 -7 0 -10 -3 -6 -6 3 -4 -1
-13 -9 -21 -8 -8 -12 -19 -9 -24 4 -5 1 -9 -5 -9 -6 0 -8 -4 -5 -10 3 -5 1
-10 -5 -10 -6 0 -8 -4 -5 -10 3 -5 1 -10 -5 -10 -6 0 -8 -4 -5 -10 3 -5 1 -10
-5 -10 -6 0 -8 -4 -5 -10 3 -5 2 -10 -3 -10 -12 0 -34 -49 -27 -61 4 -5 1 -9
-5 -9 -7 0 -9 -7 -6 -16 4 -10 2 -13 -6 -8 -8 5 -9 2 -5 -9 4 -10 2 -17 -4
-17 -6 0 -8 -7 -5 -16 4 -10 2 -13 -6 -8 -8 5 -9 2 -5 -9 4 -10 2 -17 -4 -17
-6 0 -8 -7 -5 -16 4 -10 2 -13 -6 -8 -7 5 -9 0 -6 -14 4 -14 2 -20 -5 -15 -6
4 -8 -2 -5 -15 4 -14 2 -20 -5 -15 -6 4 -8 -2 -5 -15 4 -12 2 -20 -2 -17 -11
7 -23 -51 -14 -66 4 -7 3 -9 -3 -6 -14 9 -26 -38 -18 -66 4 -15 3 -18 -3 -9
-9 13 -43 -123 -62 -248 -16 -109 -12 -670 6 -780 20 -126 65 -302 110 -431
51 -146 170 -393 185 -383 8 4 9 3 5 -4 -10 -16 22 -74 36 -66 7 4 8 3 4 -4
-8 -14 12 -55 23 -47 5 2 8 -3 7 -13 0 -9 5 -16 12 -14 8 1 11 -2 7 -7 -7 -12
44 -93 55 -86 4 3 7 -3 6 -13 0 -9 5 -16 12 -14 8 1 11 -1 8 -6 -6 -10 10 -37
24 -37 5 0 9 -2 8 -5 -4 -12 24 -50 33 -45 5 4 8 2 7 -4 -2 -5 13 -24 32 -41
19 -17 28 -28 20 -25 -8 4 1 -9 21 -27 20 -18 39 -41 42 -51 4 -9 18 -22 32
-27 14 -5 24 -15 23 -22 -2 -7 7 -17 20 -23 12 -5 22 -15 22 -21 0 -6 6 -17
14 -23 11 -9 15 -8 20 5 3 8 6 22 6 29 0 14 20 46 101 168 44 66 48 81 19 72
-12 -4 -20 -2 -20 5 0 7 12 10 29 8 23 -2 38 7 72 39 24 23 59 52 77 65 146
102 216 148 226 148 7 0 16 4 22 8 14 14 240 102 259 102 16 0 17 17 10 243
l-7 242 39 49 c21 26 64 80 95 120 60 74 72 112 43 136 -8 7 -15 25 -15 40 0
29 -27 60 -52 60 -25 0 -50 36 -47 67 6 52 4 53 -215 53 l-203 0 -131 -165
-132 -164 0 -71 0 -72 -136 -169 c-115 -143 -140 -169 -163 -169 -26 1 -26 1
6 15 17 7 42 29 55 48 24 36 36 52 150 199 l68 86 0 72 c0 67 2 74 35 114 19
24 45 57 58 74 44 61 136 178 161 205 l25 27 196 0 c153 0 196 3 193 13 -4 9
-58 13 -216 15 l-211 2 -123 -154 -123 -155 -207 0 c-133 -1 -208 3 -208 9 0
6 73 10 200 10 l200 0 127 160 128 160 202 0 c176 0 202 2 197 15 -5 13 -38
15 -214 15 l-208 0 -133 -165 -134 -166 -167 2 c-93 1 -171 5 -174 10 -3 5 33
9 79 9 46 0 124 3 173 6 l89 7 130 163 130 163 203 1 c162 0 202 3 202 13 0
15 -282 27 -644 27 -216 0 -183 -12 -267 98 -29 37 -48 52 -65 52 -13 0 -24 5
-24 10 0 6 11 10 25 10 19 0 40 -18 86 -75 l62 -75 409 0 c270 0 407 3 403 10
-4 6 -146 10 -393 10 l-387 0 -41 53 c-22 28 -48 64 -57 80 -16 25 -23 27 -78
27 -38 0 -58 4 -54 10 3 6 30 10 60 10 l53 0 64 -81 63 -81 215 6 c118 3 286
6 373 6 l158 0 -20 26 c-12 15 -21 35 -21 45 0 16 -8 19 -44 19 -39 0 -48 -5
-75 -36 l-30 -37 -273 7 c-207 6 -277 11 -288 21 -8 8 -40 48 -70 89 -50 68
-58 75 -89 76 -40 0 -34 12 7 16 25 3 37 -7 101 -86 l71 -90 270 0 269 0 28
35 c24 30 34 35 70 35 40 0 44 3 58 36 8 20 15 38 15 40 0 2 -138 4 -307 4
-170 0 -312 4 -318 8 -5 4 -14 15 -20 24 -5 9 -61 80 -122 157 -62 78 -109
141 -104 141 9 0 31 -25 159 -185 l88 -110 302 -3 c297 -2 302 -2 302 18 0 19
-7 20 -167 22 -93 0 -172 2 -178 3 -5 2 -59 3 -120 4 l-110 1 -45 58 c-73 93
-195 256 -204 270 -24 40 17 -6 125 -140 68 -84 128 -157 134 -161 5 -4 55 -5
110 -3 55 3 179 5 277 6 l176 0 6 58 c8 81 23 199 31 250 l8 42 -54 0 -55 0
-54 -71 c-30 -39 -66 -87 -79 -105 l-24 -34 -143 0 -143 0 -120 153 c-163 205
-165 208 -167 224 -2 14 74 -67 116 -124 14 -19 58 -76 99 -128 l74 -95 136 0
136 0 83 105 84 105 53 0 c38 0 54 4 59 15 5 14 -4 15 -56 13 l-63 -3 -80
-102 -80 -102 -132 0 -131 -1 -54 66 c-29 36 -64 83 -78 103 -14 20 -35 48
-47 61 -48 51 -17 160 46 160 74 0 101 -114 41 -170 l-30 -28 62 -84 63 -83
121 -3 122 -3 88 111 87 110 63 0 c61 0 63 1 98 41 19 23 50 70 67 104 29 54
40 66 93 95 34 18 139 75 234 126 95 52 237 134 315 184 78 49 153 91 167 92
14 0 30 2 35 3 6 2 21 3 33 4 l24 1 -26 31 c-55 65 -12 179 68 179 24 0 65
-48 71 -84 9 -45 2 -75 -25 -104 -14 -14 -16 -22 -8 -23 36 -3 55 5 81 34 l27
31 0 337 0 336 -27 31 c-49 54 -94 108 -104 123 -8 13 -9 0 -14 -177 -1 -54 2
-49 -117 -198 l-48 -60 0 -133 c0 -82 -4 -133 -10 -133 -6 0 -10 52 -10 138
l1 137 79 99 c44 55 80 107 81 115 0 9 1 100 2 203 l2 187 -55 -1 c-30 -1
-100 -5 -155 -9z m-276 -103 c7 -8 11 -30 9 -48 -2 -26 -8 -34 -26 -36 -46 -7
-71 48 -36 82 19 20 38 20 53 2z m402 -105 c-12 -7 -21 -17 -21 -22 0 -5 -27
-42 -60 -83 l-60 -74 0 -162 c0 -105 -3 -159 -10 -155 -6 4 -10 70 -10 165 0
142 2 161 19 182 150 179 151 181 153 230 2 39 2 38 5 -12 4 -47 1 -57 -16
-69z m-64 87 c-3 -8 -6 -5 -6 6 -1 11 2 17 5 13 3 -3 4 -12 1 -19z m-23 -48
c-9 -16 -19 -30 -22 -30 -4 0 -22 -23 -41 -50 -19 -28 -37 -50 -41 -50 -18 0
-30 -59 -30 -143 0 -63 -3 -87 -10 -77 -5 8 -10 54 -10 101 l0 85 75 89 c41
49 75 93 75 97 0 4 4 8 9 8 5 0 3 -13 -5 -30z m-387 -82 c-3 -8 -6 -5 -6 6 -1
11 2 17 5 13 3 -3 4 -12 1 -19z m173 -245 c52 -120 111 -256 132 -301 21 -46
38 -88 38 -93 0 -14 -289 -189 -510 -307 -47 -25 -132 -76 -190 -114 -57 -37
-112 -68 -121 -68 -10 0 -27 12 -39 28 -94 122 -122 157 -175 218 -32 38 -85
97 -117 131 -32 34 -58 66 -58 72 0 14 66 14 122 1 24 -6 95 -21 158 -34 63
-14 131 -29 150 -33 104 -25 105 -10 31 381 -12 61 -21 113 -21 118 0 10 27
11 32 0 2 -4 65 -65 142 -135 132 -122 176 -151 197 -130 5 5 18 54 28 109 20
104 79 353 88 367 2 4 8 7 12 7 4 0 50 -98 101 -217z m-323 -65 c-1 -51 -3
-10 -3 92 0 102 2 143 3 93 2 -51 2 -135 0 -185z m-305 197 c14 -32 0 -78 -25
-83 -42 -8 -76 65 -45 96 21 21 57 14 70 -13z m238 -173 c20 -25 27 -62 11
-62 -4 0 -23 13 -40 28 -29 25 -31 30 -17 41 12 10 16 36 18 105 l2 91 3 -89
c3 -70 8 -94 23 -114z m-60 115 c0 -43 -5 -69 -16 -83 -15 -19 -16 -19 -8 1 4
11 10 48 12 83 2 34 6 62 8 62 2 0 4 -28 4 -63z m-204 -202 c8 -34 -3 -74 -23
-82 -10 -4 -24 3 -39 20 -17 20 -33 27 -57 27 -20 0 -40 7 -48 17 -12 14 -12
16 0 8 26 -15 83 -7 98 15 21 29 61 26 69 -5z m-44 -142 c22 -20 23 -51 1 -75
-22 -25 -39 -23 -59 7 -16 24 -20 25 -123 25 -148 0 -155 14 -8 18 107 2 122
5 134 22 17 24 31 25 55 3z m-416 -58 c29 -44 -6 -104 -43 -73 -29 24 -35 48
-18 74 20 31 40 31 61 -1z m344 -55 c24 -34 13 -41 -15 -10 -15 16 -32 20 -94
21 -129 2 -149 16 -24 18 l112 1 21 -30z m1005 -80 c9 -17 12 -36 8 -44 -10
-17 -174 -128 -291 -197 -167 -99 -536 -299 -552 -299 -15 0 -50 47 -50 69 0
11 124 86 445 266 116 64 226 128 245 140 69 46 155 94 167 95 7 0 20 -14 28
-30z m-1301 -17 c8 -16 36 -49 62 -75 l48 -48 -142 0 c-139 0 -166 -6 -137
-30 8 -7 17 -26 20 -44 13 -66 -37 -126 -88 -107 -34 13 -50 45 -49 99 1 24
-5 57 -13 73 -22 41 -18 46 13 17 22 -21 32 -24 50 -17 l24 9 -21 36 c-12 19
-21 37 -21 38 0 2 20 7 45 10 24 4 49 14 53 23 8 13 13 13 32 3 19 -10 24 -10
32 5 10 16 41 33 65 34 7 1 19 -11 27 -26z m-314 -230 c0 -39 6 -62 19 -79 29
-37 9 -94 -32 -94 -17 0 -19 5 -14 35 3 19 1 37 -4 41 -6 4 -6 11 2 20 7 9 10
40 7 83 -3 56 -1 68 9 59 8 -6 13 -33 13 -65z m306 42 c15 -23 22 -25 100 -25
45 0 86 -4 89 -10 4 -6 -27 -10 -85 -10 -82 0 -94 -2 -109 -21 -37 -46 -90 13
-61 67 17 31 45 31 66 -1z m72 -159 c34 -18 65 -51 87 -95 26 -52 18 -186 -14
-233 -80 -117 -210 -107 -278 22 -40 75 -26 196 29 260 48 56 120 75 176 46z
m-868 -316 c25 -25 27 -95 3 -122 -32 -35 -88 -17 -106 35 -4 9 -13 17 -22 17
-22 0 -19 18 5 25 11 3 20 11 20 16 0 16 40 49 60 49 11 0 29 -9 40 -20z m380
-88 c0 -8 68 -93 115 -144 14 -15 25 -30 25 -34 0 -4 17 -26 38 -50 20 -24 50
-59 65 -79 l29 -35 142 0 c130 0 142 2 154 20 24 39 82 19 82 -28 0 -57 -53
-85 -82 -43 -11 16 -31 19 -163 23 -97 3 -150 9 -153 16 -3 11 -197 261 -225
292 -27 29 -49 70 -38 70 6 0 11 -4 11 -8z m-365 -92 c-3 -5 -24 -10 -45 -10
-21 0 -42 5 -45 10 -4 6 13 10 45 10 32 0 49 -4 45 -10z m315 -229 c0 -33 -21
-55 -47 -48 -14 4 -13 5 4 6 32 1 42 45 17 73 -19 21 -19 21 4 9 15 -8 22 -21
22 -40z m-613 -133 c-3 -8 -6 -5 -6 6 -1 11 2 17 5 13 3 -3 4 -12 1 -19z m623
-357 c24 -45 -6 -95 -51 -84 -10 3 -19 1 -19 -4 0 -5 -7 -18 -15 -29 -14 -16
-13 -14 0 15 9 18 14 43 11 55 -12 49 51 89 74 47z m214 -47 c17 -16 21 -61 8
-80 -13 -19 -41 -24 -54 -8 -33 38 -41 44 -67 44 -27 0 -40 -11 -143 -127 -21
-24 -48 -31 -48 -13 0 6 6 10 14 10 8 0 41 34 73 75 57 73 59 74 105 75 37 0
50 4 58 20 13 24 33 26 54 4z m-847 -206 c-3 -8 -6 -5 -6 6 -1 11 2 17 5 13 3
-3 4 -12 1 -19z m1627 -90 c41 -42 53 -102 31 -155 -21 -50 -41 -71 -76 -78
-18 -4 -48 -28 -79 -63 l-50 -57 0 -183 c0 -191 -2 -201 -47 -257 -14 -16 -34
-43 -46 -58 -12 -16 -36 -45 -54 -65 l-31 -37 -151 -3 -150 -3 -63 -79 c-35
-43 -68 -77 -75 -75 -6 2 -14 -1 -17 -8 -8 -20 -24 12 -18 36 3 13 1 18 -5 14
-6 -4 -16 6 -21 23 -7 18 -7 32 -1 35 5 4 9 13 9 21 0 16 106 154 143 187 16
14 40 17 161 17 l141 0 48 60 47 59 0 190 0 189 38 49 c65 84 92 128 92 152 0
32 29 89 54 106 36 26 84 19 120 -17z m-929 -190 c90 -41 61 -208 -35 -208
-21 0 -73 43 -81 68 -2 7 -24 16 -49 21 l-45 8 28 11 c16 7 37 12 47 12 11 0
20 10 24 26 8 31 49 74 70 74 8 0 27 -5 41 -12z m509 -84 c32 -31 11 -104 -29
-104 -8 0 -22 11 -31 25 -15 23 -22 26 -72 23 l-56 -3 -149 -185 c-107 -133
-156 -186 -173 -188 -13 -2 -24 1 -24 7 0 6 11 11 25 11 14 0 25 3 25 8 0 4
17 28 38 54 20 26 84 108 142 182 l105 135 61 1 c55 0 64 3 78 25 19 29 38 32
60 9z m-602 -115 c13 -39 -6 -79 -36 -79 -14 0 -28 5 -32 11 -4 7 0 9 13 5 26
-8 47 16 38 44 -8 26 -36 23 -50 -7 -7 -14 -16 -19 -24 -13 -10 6 -7 15 15 39
33 38 64 38 76 0z m608 -59 c16 -30 8 -71 -17 -87 -20 -14 -24 -13 -46 11 -22
24 -31 26 -100 26 -72 0 -77 -1 -97 -30 -24 -34 -50 -66 -102 -125 -21 -23
-38 -46 -38 -51 0 -5 -18 -26 -39 -48 -36 -34 -42 -37 -68 -28 l-28 10 31 1
c27 1 44 17 150 151 l119 150 80 0 c69 0 82 3 93 20 16 26 48 26 62 0z m-333
-812 c-3 -8 -6 -5 -6 6 -1 11 2 17 5 13 3 -3 4 -12 1 -19z"/>
<path d="M1465 4429 c-10 -30 18 -58 40 -39 22 18 15 54 -12 58 -15 2 -23 -3
-28 -19z"/>
<path d="M1051 3891 c-8 -15 -7 -23 4 -35 22 -22 47 -9 43 23 -4 32 -33 40
-47 12z"/>
<path d="M1054 3712 c-74 -47 -105 -163 -65 -246 32 -65 72 -96 126 -96 131 0
191 209 91 317 -41 45 -104 55 -152 25z m102 -28 c48 -23 78 -90 71 -156 -8
-60 -26 -92 -68 -113 -41 -22 -81 -11 -118 31 -36 41 -45 71 -38 126 6 47 52
109 88 119 13 4 26 7 27 8 2 1 19 -6 38 -15z"/>
<path d="M1062 3638 c-30 -33 -42 -71 -35 -112 19 -116 161 -112 174 4 4 42
-3 71 -27 99 -32 39 -80 42 -112 9z m86 -85 c4 -43 -27 -62 -53 -33 -15 17
-16 24 -6 46 17 38 55 30 59 -13z"/>
<path d="M596 2532 c-13 -12 -5 -60 10 -66 23 -9 34 2 34 33 0 20 -6 30 -19
34 -11 3 -22 2 -25 -1z"/>
<path d="M815 2460 c-11 -17 5 -50 25 -50 10 0 21 7 24 16 11 30 -33 60 -49
34z"/>
<path d="M1177 1894 c-13 -13 -7 -42 10 -48 21 -8 36 6 31 30 -3 19 -29 30
-41 18z"/>
<path d="M1180 1725 c-17 -20 -8 -50 15 -50 14 0 21 8 23 26 4 31 -20 45 -38
24z"/>
<path d="M2584 5065 c3 -9 6 -33 6 -52 l0 -36 21 27 c12 16 30 26 45 26 21 0
25 4 22 23 -3 19 -10 22 -52 25 -42 3 -48 1 -42 -13z"/>
<path d="M2700 5061 c0 -18 31 -25 51 -12 23 13 25 2 4 -25 -10 -13 -14 -46
-15 -112 0 -91 1 -94 35 -139 l35 -47 -2 -347 -3 -348 23 21 c22 21 22 22 22
364 0 260 -3 346 -12 356 -44 47 -58 79 -58 131 0 40 5 58 18 70 26 24 36 21
18 -5 -10 -13 -16 -43 -16 -73 0 -42 6 -57 35 -94 l35 -44 0 -348 0 -347 -26
-31 c-14 -17 -24 -37 -21 -45 3 -7 31 -18 63 -24 54 -11 59 -11 81 10 22 20
23 28 23 160 l0 138 -45 58 -45 57 0 235 c-1 191 -3 239 -15 254 -18 24 -19
52 -3 62 7 4 8 3 4 -5 -12 -19 4 -51 25 -51 11 0 24 10 29 23 l9 22 0 -22 c1
-12 -6 -28 -14 -37 -12 -12 -15 -53 -15 -245 l0 -230 50 -60 50 -60 0 -141 c0
-92 4 -139 10 -135 6 4 10 60 10 136 l0 130 -51 61 -50 61 3 218 c3 207 4 219
25 241 12 13 23 37 26 53 l4 30 2 -31 c0 -18 -7 -42 -19 -57 -19 -23 -20 -40
-20 -235 l0 -210 48 -58 47 -59 5 -138 5 -139 34 46 35 46 96 0 96 0 49 -65
c33 -45 55 -65 70 -65 49 0 57 -86 12 -114 -27 -16 -61 27 -54 70 5 26 -2 41
-44 93 l-50 61 -79 0 -79 0 -50 -60 c-76 -91 -76 -92 -30 -117 l39 -21 0 21
c0 34 76 117 107 117 13 0 33 10 42 22 13 16 24 19 44 14 46 -11 49 -84 4
-107 -18 -10 -24 -8 -43 15 -35 40 -67 35 -104 -18 -30 -44 -39 -76 -21 -76 6
0 39 -20 75 -45 l66 -45 16 26 17 25 357 -3 356 -3 40 43 c49 50 75 53 115 13
37 -37 43 -102 13 -148 -9 -14 -14 -50 -14 -101 0 -54 -4 -83 -13 -91 -21 -17
-27 -3 -27 70 0 60 -11 91 -27 76 -3 -3 -8 -39 -11 -79 -5 -55 -11 -73 -22
-73 -12 0 -15 17 -16 91 -3 150 42 134 -374 134 -230 0 -361 -4 -365 -10 -3
-6 18 -37 47 -70 51 -58 55 -60 103 -60 40 0 53 4 63 20 29 47 93 -1 75 -57
-12 -36 -56 -44 -75 -14 -10 16 -23 21 -55 21 l-43 0 22 -35 23 -35 180 0 c99
0 275 -3 391 -7 115 -3 240 -3 276 1 l66 7 -14 27 c-20 39 -17 74 9 113 37 56
117 46 133 -16 5 -20 13 -25 36 -25 35 0 34 -22 -3 -30 -13 -3 -25 -15 -27
-25 -2 -11 -8 -24 -13 -30 -7 -7 4 -13 31 -20 l40 -10 -25 -45 c-14 -25 -31
-56 -38 -70 -6 -14 -16 -28 -22 -32 -5 -4 -218 -8 -472 -8 -259 0 -463 -4
-463 -9 0 -5 7 -25 15 -45 l15 -36 309 0 c341 0 596 -9 566 -21 -11 -4 -206
-8 -434 -8 -228 -1 -418 -4 -422 -7 -22 -13 -8 -42 22 -48 17 -3 223 -6 457
-6 253 0 422 -4 417 -9 -6 -5 -207 -11 -447 -13 -386 -3 -464 -7 -447 -22 2
-2 198 -6 434 -10 237 -4 437 -8 446 -9 19 -3 56 -37 40 -37 -5 0 -13 5 -16
10 -4 6 -167 10 -457 10 -406 0 -450 -2 -444 -16 3 -9 6 -18 6 -20 0 -3 4 -2
10 1 5 3 21 -5 34 -19 l23 -26 269 0 269 0 99 -125 c72 -92 104 -125 120 -125
39 0 57 -38 40 -84 -16 -42 -79 -3 -72 44 2 13 -32 64 -95 143 l-98 124 -267
-5 c-249 -3 -268 -5 -281 -23 -7 -10 -19 -19 -26 -19 -13 0 -23 -60 -28 -165
l-2 -50 264 -3 263 -2 26 27 25 27 24 -28 c16 -20 22 -34 17 -49 -16 -52 -44
-61 -70 -22 l-16 25 -269 0 c-168 0 -270 -4 -274 -10 -4 -7 81 -10 249 -10
l255 0 25 -32 c17 -22 33 -32 52 -33 20 0 33 -8 43 -26 13 -24 13 -29 -2 -53
-10 -14 -24 -26 -32 -26 -22 0 -45 29 -45 56 0 14 -10 38 -22 54 l-22 30 -258
0 c-242 0 -258 -1 -258 -18 0 -10 -4 -22 -9 -28 -5 -5 -14 -27 -21 -49 -7 -22
-16 -44 -20 -50 -10 -14 -34 -90 -29 -92 2 -1 -6 -12 -18 -25 -19 -20 -21 -27
-10 -41 9 -13 32 -17 97 -19 l84 -3 44 -58 43 -57 305 0 c196 0 304 4 304 10
0 6 37 10 90 10 l90 0 0 -115 0 -115 -84 0 c-47 0 -88 4 -91 10 -4 6 -121 10
-319 10 l-314 0 -42 55 -42 55 -74 0 -73 0 -37 -45 -36 -45 -83 0 c-64 0 -84
-3 -89 -15 -7 -20 -63 -19 -74 1 -8 15 -13 15 -38 3 l-29 -14 -3 -164 c-2
-144 -5 -167 -22 -191 -25 -35 -25 -47 0 -85 13 -19 20 -47 20 -76 0 -52 -7
-48 113 -65 26 -3 50 -10 53 -15 3 -5 16 -9 30 -9 23 0 24 3 24 65 0 69 13
107 49 139 18 17 21 30 21 108 0 75 -3 94 -20 115 -24 31 -25 51 -4 81 16 23
58 30 69 12 4 -7 14 -5 28 5 71 49 158 -46 127 -139 -6 -20 -25 -46 -41 -58
-28 -21 -29 -25 -29 -102 l-1 -81 -59 -74 c-33 -41 -60 -78 -60 -83 0 -5 8
-11 18 -14 9 -3 25 -10 34 -15 11 -5 19 -5 24 2 4 7 12 5 22 -4 10 -8 35 -20
57 -27 22 -7 52 -19 68 -27 l27 -14 0 185 0 185 88 110 87 110 261 0 c281 1
274 0 274 52 0 17 8 19 85 19 l85 0 0 -109 c0 -126 4 -121 -100 -121 -61 0
-68 2 -73 21 -5 20 -10 21 -59 16 -29 -4 -136 -7 -238 -7 l-186 0 -51 -64 -51
-64 -3 -183 c-2 -101 0 -190 4 -196 5 -7 16 -13 26 -13 10 0 24 -7 31 -15 6
-8 32 -25 56 -39 l44 -25 0 46 c0 30 -7 53 -20 70 -16 20 -20 41 -20 97 -1 46
-6 78 -15 90 -21 28 -19 62 5 86 16 16 25 18 40 10 30 -16 43 -47 32 -78 -9
-26 -8 -27 27 -27 36 0 36 0 33 40 -3 31 1 45 17 59 20 18 22 18 41 1 22 -20
27 -74 8 -93 -7 -7 -12 -43 -12 -89 -1 -64 -5 -84 -23 -110 -19 -25 -23 -45
-23 -100 l0 -68 51 -40 c28 -22 68 -63 88 -92 l38 -52 -5 234 -5 233 87 108
c78 98 86 112 86 151 l0 43 69 0 c60 0 70 -3 76 -20 3 -10 2 -27 -3 -37 -5
-10 -15 -44 -22 -76 -15 -65 -37 -87 -86 -87 -24 0 -33 5 -37 22 -5 19 -13 14
-62 -48 l-55 -69 -1 -210 c-1 -115 -1 -213 -1 -217 1 -3 -5 -12 -13 -18 -19
-16 -19 -36 0 -44 8 -3 15 -13 15 -22 0 -9 13 -35 28 -58 34 -50 46 -98 29
-117 -19 -22 43 31 101 86 28 27 50 55 48 62 -3 6 5 19 17 30 l22 18 -20 -25
c-11 -14 0 -7 23 15 70 65 157 185 105 144 -16 -13 -17 -12 -4 3 7 10 17 16
21 13 4 -2 16 6 27 18 21 22 127 182 151 227 62 114 130 250 125 250 -2 0 5
16 17 35 12 19 19 35 16 35 -4 0 1 11 10 25 9 14 13 25 9 25 -4 0 -2 7 5 15 7
8 9 15 4 15 -5 0 -4 4 2 8 13 9 55 132 49 142 -3 5 -1 10 5 12 6 2 11 18 13
36 1 17 6 32 11 32 4 0 6 9 3 20 -3 11 -1 20 5 20 6 0 8 9 5 20 -3 11 -1 20 5
20 6 0 8 11 6 25 -3 14 -1 25 5 25 5 0 7 11 5 25 -3 14 -2 25 3 25 4 0 8 163
8 363 l1 362 -26 -33 c-23 -28 -32 -33 -63 -30 -34 3 -36 1 -42 -32 -5 -30 -7
-31 -8 -8 -1 28 -33 54 -51 43 -6 -3 -10 -2 -10 4 0 14 32 29 48 24 10 -4 10
1 1 20 -6 14 -22 28 -36 32 -27 6 -22 25 8 25 11 0 22 8 26 18 18 51 77 69
115 35 17 -15 18 -15 20 3 0 10 4 -1 9 -26 5 -33 6 -20 4 45 -3 104 -39 266
-97 440 -50 151 -173 410 -189 399 -8 -4 -9 -3 -5 4 9 15 -22 75 -34 67 -6 -4
-7 1 -3 11 5 13 3 15 -7 9 -8 -5 -11 -4 -6 3 7 12 -61 122 -76 122 -5 0 -7 4
-3 9 3 5 -4 16 -15 24 -11 7 -17 17 -14 20 4 4 -1 9 -10 13 -9 3 -14 10 -11
15 3 4 -6 16 -20 25 -14 9 -25 21 -25 27 0 5 -6 15 -13 21 -8 6 -52 56 -99
111 -250 293 -657 560 -1062 699 l-78 27 -25 -23 c-14 -13 -32 -36 -41 -53 -8
-17 -17 -25 -19 -17 -3 6 9 31 27 55 l31 42 -42 12 c-39 12 -45 11 -65 -8 -13
-12 -25 -33 -27 -48 l-4 -26 -2 28 c0 16 4 38 10 49 8 15 8 22 -1 28 -13 8
-213 48 -280 56 -127 14 -210 16 -210 5z m460 -589 c-29 -41 -30 -47 -30 -150
0 -71 4 -112 12 -120 8 -8 59 -12 165 -12 140 0 155 2 173 20 24 24 34 25 54
4 21 -20 20 -57 -2 -84 -20 -24 -48 -19 -57 11 -6 18 -18 19 -170 19 -204 0
-195 -7 -195 161 l0 116 35 44 35 44 2 160 2 160 3 -165 4 -165 -31 -43z m143
271 c21 -24 22 -51 0 -75 -19 -22 -36 -23 -52 -4 -18 22 -21 53 -6 73 8 10 15
38 16 63 l1 45 11 -42 c7 -23 20 -50 30 -60z m-154 -144 c1 -82 0 -88 -30
-125 l-31 -39 5 -118 c5 -108 7 -121 32 -152 l26 -35 153 0 153 0 68 -85 c47
-58 75 -85 90 -85 30 0 45 -19 45 -55 0 -43 -30 -71 -59 -56 -23 13 -37 52
-27 77 4 10 -16 44 -57 95 l-62 79 -155 0 -155 1 -37 48 -38 49 0 124 c1 122
1 123 30 158 30 34 30 35 31 170 1 104 3 124 9 85 5 -27 9 -89 9 -136z m257
14 c19 -19 18 -58 -2 -77 -22 -23 -41 -20 -60 9 -14 21 -15 31 -6 51 7 13 19
27 27 30 11 5 16 23 17 68 l2 61 3 -64 c3 -38 10 -69 19 -78z m24 -183 l0 -30
160 0 c144 0 161 2 167 18 7 17 33 48 33 38 0 -3 -9 -21 -21 -40 l-21 -36
-159 0 c-99 0 -159 -4 -159 -10 0 -6 60 -10 160 -10 l160 0 36 38 c39 40 36
27 -5 -25 l-26 -33 -162 0 c-138 0 -163 -2 -163 -15 0 -13 26 -15 173 -15
l173 0 32 42 c18 23 32 37 32 32 0 -6 -14 -29 -32 -52 l-32 -42 -173 0 -173 0
0 -30 0 -30 -125 0 -125 0 0 81 c0 72 3 83 28 115 l27 34 98 0 97 0 0 -30z
m645 -320 c4 -6 -19 -10 -63 -10 l-69 0 -33 -47 c-19 -27 -38 -50 -42 -51 -16
-7 -38 -62 -38 -96 0 -24 -6 -39 -22 -50 -32 -23 -58 -5 -58 42 0 43 14 62 45
62 13 0 42 27 84 80 l65 80 62 0 c35 0 66 -4 69 -10z m18 -39 c-5 -3 -29 -33
-54 -66 -39 -51 -45 -65 -41 -96 3 -30 0 -40 -19 -53 -22 -15 -25 -15 -42 3
-37 36 -16 101 33 101 8 0 21 10 29 23 26 42 86 105 95 100 4 -3 4 -8 -1 -12z
m432 10 c3 -6 -12 -11 -32 -13 -57 -5 -124 3 -117 13 7 12 141 12 149 0z m-18
-63 c13 -12 23 -27 23 -35 0 -7 11 -15 25 -19 30 -7 34 -34 5 -34 -13 0 -25
-12 -34 -34 -26 -61 -72 -72 -117 -27 -33 34 -39 83 -14 131 24 45 74 54 112
18z m-11 -222 c8 -14 23 -27 32 -29 12 -3 10 -5 -5 -6 -13 0 -23 -7 -23 -15 0
-8 -10 -22 -22 -30 -32 -23 -58 -5 -58 42 0 63 45 85 76 38z m-781 -187 c0
-68 -3 -84 -15 -84 -12 0 -16 16 -18 74 -3 82 2 105 21 98 8 -2 12 -29 12 -88z
m75 1 c0 -49 -4 -90 -8 -90 -22 0 -32 29 -32 95 0 74 4 85 27 85 10 0 13 -22
13 -90z m80 7 c0 -88 -5 -104 -27 -86 -9 8 -13 35 -13 84 0 74 4 85 27 85 10
0 13 -21 13 -83z m75 -8 c0 -68 -3 -84 -15 -84 -12 0 -16 16 -18 74 -3 82 2
105 21 98 8 -2 12 -29 12 -88z m83 12 c3 -70 -9 -108 -29 -95 -10 6 -12 157
-2 168 18 18 28 -7 31 -73z m226 63 c12 -30 6 -130 -8 -150 -12 -16 -15 -16
-19 -4 -8 23 -15 144 -10 158 7 17 30 15 37 -4z m76 -72 c0 -83 -5 -99 -27
-81 -8 8 -13 35 -13 79 0 69 4 80 27 80 10 0 13 -20 13 -78z m770 -662 c0 -18
-7 -20 -71 -20 -44 0 -68 4 -64 10 3 6 33 10 66 10 33 0 59 4 59 10 0 6 2 10
5 10 3 0 5 -9 5 -20z m-160 -292 c0 -6 -7 -5 -15 2 -8 7 -15 17 -15 22 0 6 7
5 15 -2 8 -7 15 -17 15 -22z m-165 -44 l11 -22 27 24 c47 41 88 27 110 -37 9
-27 10 -57 3 -117 l-9 -80 -37 -12 c-71 -23 -81 -11 -95 117 -7 57 -9 61 -26
50 -13 -8 -19 -26 -22 -67 l-3 -55 -2 61 c-1 45 -6 63 -17 68 -12 4 -14 14 -9
43 4 21 9 42 11 46 9 15 47 2 58 -19z m-1016 -39 c16 -8 34 -28 41 -45 l12
-30 128 0 128 0 36 -45 37 -45 114 0 114 0 3 43 3 42 88 3 87 3 0 -116 0 -115
-90 0 -90 0 0 40 0 40 -127 0 -128 1 -35 45 -35 45 -115 -3 -116 -3 -30 -34
c-40 -44 -86 -47 -120 -8 -46 54 -40 135 14 177 30 24 44 25 81 5z m1218 -42
c-3 -10 -5 -4 -5 12 0 17 2 24 5 18 2 -7 2 -21 0 -30z m-283 -42 c4 -5 -3 -7
-13 -4 -16 4 -20 -1 -24 -29 l-4 -33 -1 38 c-2 31 1 37 17 37 11 0 22 -4 25
-9z m413 -303 c-3 -8 -6 -5 -6 6 -1 11 2 17 5 13 3 -3 4 -12 1 -19z m-20 -120
c-3 -8 -6 -5 -6 6 -1 11 2 17 5 13 3 -3 4 -12 1 -19z"/>
<path d="M3484 4185 c-9 -23 3 -45 25 -45 19 0 31 25 24 48 -6 17 -42 15 -49
-3z"/>
<path d="M3254 4726 c-17 -43 25 -75 46 -36 9 16 8 25 -1 36 -15 18 -38 18
-45 0z"/>
<path d="M3594 3915 c-9 -22 22 -53 37 -38 15 15 7 47 -14 51 -9 2 -20 -4 -23
-13z"/>
<path d="M3357 4603 c-20 -19 0 -63 28 -63 11 0 24 40 19 54 -6 16 -35 22 -47
9z"/>
<path d="M3765 3920 c-3 -6 -3 -19 0 -31 10 -29 39 -20 43 14 3 21 -1 27 -17
27 -11 0 -23 -5 -26 -10z"/>
<path d="M3934 3915 c-8 -21 2 -45 19 -45 21 0 38 25 31 44 -8 20 -43 21 -50
1z"/>
<path d="M2692 4857 c-9 -10 -3 -26 23 -65 l35 -51 0 -342 c0 -329 -1 -342
-21 -370 -20 -29 -20 -29 0 -29 11 0 29 12 40 26 20 26 21 38 21 364 l0 337
-35 44 c-21 26 -35 55 -35 72 0 29 -11 35 -28 14z"/>
<path d="M3277 4013 c-11 -10 -8 -41 4 -49 16 -9 41 20 33 39 -6 17 -25 22
-37 10z"/>
<path d="M3427 3924 c-12 -12 -8 -42 6 -47 21 -8 39 8 35 29 -3 19 -29 30 -41
18z"/>
<path d="M3551 3612 c-7 -14 -6 -24 4 -38 13 -18 15 -18 32 -1 13 13 15 21 7
34 -16 25 -31 27 -43 5z"/>
<path d="M3640 2985 c0 -17 5 -25 13 -22 6 2 12 12 12 22 0 10 -6 20 -12 23
-8 2 -13 -6 -13 -23z"/>
<path d="M4192 2721 c-19 -11 -11 -45 11 -49 9 -2 20 4 23 13 9 21 -16 47 -34
36z"/>
<path d="M4442 2703 c2 -20 8 -28 23 -28 31 0 28 49 -3 53 -20 3 -23 0 -20
-25z"/>
<path d="M4187 2584 c-11 -11 -8 -52 4 -60 6 -3 18 1 27 10 13 12 14 21 6 33
-12 20 -27 26 -37 17z"/>
<path d="M3467 2278 c9 -18 21 -36 27 -40 6 -4 48 -8 94 -8 90 0 103 -7 149
-82 l17 -28 308 0 308 0 0 25 0 25 -314 0 -313 0 -44 55 -44 55 -86 0 c-68 0
-88 3 -93 15 -3 8 -10 15 -15 15 -5 0 -2 -15 6 -32z"/>
<path d="M3467 2155 c-29 -61 -93 -78 -140 -37 -16 14 -19 14 -39 -5 -31 -32
-15 -43 62 -43 l69 0 37 45 36 45 88 0 87 0 47 -60 47 -60 304 0 c234 0 304 3
308 13 12 36 2 37 -318 37 l-313 0 -42 50 -42 50 -87 0 -87 0 -17 -35z"/>
<path d="M1820 2090 c0 -23 -22 -58 -95 -149 l-95 -120 0 -237 c0 -209 2 -235
15 -224 13 10 15 49 15 234 l0 221 108 135 109 136 -23 17 c-31 23 -34 22 -34
-13z"/>
<path d="M3228 2066 c-10 -7 -18 -18 -18 -25 0 -16 30 -14 36 4 10 24 0 35
-18 21z"/>
<path d="M1787 1927 l-107 -132 0 -213 c0 -167 3 -213 13 -210 9 4 13 61 17
224 l5 219 67 85 c36 47 79 100 94 118 14 18 25 35 22 37 -3 3 -53 -55 -111
-128z"/>
<path d="M1890 1992 c-33 -45 -74 -96 -132 -165 l-28 -32 0 -208 c0 -153 3
-206 11 -201 12 7 30 10 79 13 24 2 25 2 5 17 -34 25 -8 48 58 52 46 2 58 0
69 -17 8 -12 18 -18 21 -14 4 3 7 77 7 164 0 87 4 169 10 184 5 14 32 54 60
88 27 34 50 67 50 74 0 20 -39 36 -55 23 -36 -29 -90 -113 -91 -140 -4 -84
-94 -80 -94 4 0 31 26 58 54 54 15 -2 33 12 65 50 24 29 42 54 40 56 -20 14
-78 46 -85 46 -5 0 -25 -22 -44 -48z m65 -342 c3 -6 3 -19 0 -30 -5 -17 -15
-20 -71 -20 -67 0 -84 11 -70 45 4 11 22 15 70 15 36 0 68 -5 71 -10z m1 -105
c12 -31 -17 -47 -73 -43 -58 5 -79 18 -70 42 9 23 135 23 143 1z"/>
<path d="M3063 1973 c-19 -7 -17 -182 2 -207 19 -25 19 -44 1 -78 -8 -15 -11
-30 -7 -32 9 -6 29 30 32 54 5 46 -2 270 -8 269 -5 0 -14 -3 -20 -6z"/>
<path d="M2970 1934 c-25 -8 -52 -17 -60 -21 -8 -4 -19 -7 -25 -8 -5 0 -14 -3
-20 -7 -13 -8 -139 -26 -242 -34 -72 -6 -82 -9 -87 -28 -3 -12 -19 -35 -35
-50 -29 -28 -50 -33 -105 -24 -14 2 -39 -21 -88 -80 l-68 -83 0 -66 0 -66 38
7 c20 3 42 6 49 6 7 0 9 13 6 40 -4 30 -1 45 12 60 24 26 39 25 63 -5 20 -25
20 -25 196 -25 97 0 176 3 176 8 0 4 24 37 54 74 39 49 52 74 49 91 -3 14 4
33 16 47 20 25 20 25 51 8 25 -14 35 -15 50 -5 17 10 20 23 20 94 0 46 -1 83
-2 82 -2 -1 -23 -7 -48 -15z"/>
<path d="M3403 1884 c-8 -21 13 -42 28 -27 13 13 5 43 -11 43 -6 0 -13 -7 -17
-16z"/>
<path d="M1890 1845 c-11 -13 -11 -19 4 -33 15 -15 18 -15 26 -2 22 33 -6 64
-30 35z"/>
<path d="M3977 1850 l-127 -5 -80 -100 -80 -100 0 -177 c0 -107 4 -179 10
-183 7 -4 10 55 10 169 l0 176 78 100 77 99 252 -1 c139 0 253 2 253 6 0 3 0
11 0 17 0 10 -109 10 -393 -1z"/>
<path d="M2235 1840 c-11 -4 -41 -33 -67 -63 l-48 -56 0 -134 c0 -132 0 -135
21 -130 20 6 21 10 15 122 l-6 116 56 70 c75 95 76 95 29 75z"/>
<path d="M2236 1753 l-56 -67 0 -108 c0 -89 3 -108 15 -108 12 0 15 14 15 68
l0 68 70 89 c39 48 69 95 68 104 -2 9 -15 17 -29 19 -22 3 -36 -8 -83 -65z"/>
<path d="M3802 1708 l-72 -91 2 -175 c2 -129 6 -176 16 -180 9 -3 12 37 12
176 l0 180 65 81 66 81 239 0 c153 0 240 4 240 10 0 6 -89 10 -248 10 l-248 0
-72 -92z"/>
<path d="M3436 1745 c-3 -11 -6 -45 -6 -77 0 -49 -4 -61 -35 -98 -32 -38 -35
-47 -35 -106 0 -52 3 -65 19 -74 28 -14 31 -13 31 14 0 13 23 52 55 92 54 67
55 70 55 133 0 62 -1 65 -39 100 -37 34 -40 35 -45 16z"/>
<path d="M2910 1730 c0 -24 29 -38 40 -20 12 19 1 40 -21 40 -12 0 -19 -7 -19
-20z"/>
<path d="M3007 1737 c-8 -20 9 -41 27 -34 23 9 21 47 -3 47 -10 0 -21 -6 -24
-13z"/>
<path d="M2963 1682 c-8 -13 -7 -22 2 -35 11 -16 13 -16 29 1 15 18 15 20 -2
35 -16 15 -19 15 -29 -1z"/>
<path d="M2843 1595 l-57 -75 -181 0 c-169 0 -181 -1 -193 -20 -12 -20 -10
-20 192 -20 l205 0 37 45 c24 30 37 57 39 80 1 19 8 41 15 50 7 8 10 15 7 15
-3 0 -32 -34 -64 -75z"/>
<path d="M2913 1614 c-7 -18 11 -39 26 -30 17 11 13 46 -4 46 -9 0 -18 -7 -22
-16z"/>
<path d="M3010 1620 c0 -5 9 -10 21 -10 11 0 17 5 14 10 -3 6 -13 10 -21 10
-8 0 -14 -4 -14 -10z"/>
<path d="M2361 1556 c-16 -19 -8 -46 13 -46 20 0 29 31 13 47 -12 12 -16 12
-26 -1z"/>
<path d="M2871 1510 c-29 -37 -30 -40 -11 -40 12 0 20 7 20 18 0 10 7 28 16
40 25 36 10 25 -25 -18z"/>
<path d="M4051 1516 c-15 -18 -3 -46 19 -46 24 0 33 15 25 40 -7 23 -28 26
-44 6z"/>
<path d="M2915 1497 c-4 -10 -5 -21 -1 -24 10 -10 18 4 13 24 -4 17 -4 17 -12
0z"/>
<path d="M4017 1253 c-11 -10 -8 -141 3 -148 6 -4 10 23 10 74 0 81 -1 87 -13
74z"/>
<path d="M3976 1197 c-6 -40 -5 -62 3 -70 19 -19 22 -2 13 64 l-8 64 -8 -58z"/>
<path d="M4164 538 l-19 -23 23 19 c12 11 22 21 22 23 0 8 -8 2 -26 -19z"/>
</g>
</svg>
