<?xml version="1.0" standalone="no"?>
<!DOCTYPE svg PUBLIC "-//W3C//DTD SVG 20010904//EN"
 "http://www.w3.org/TR/2001/REC-SVG-20010904/DTD/svg10.dtd">
<svg version="1.0" xmlns="http://www.w3.org/2000/svg"
 width="512.000000pt" height="512.000000pt" viewBox="0 0 512.000000 512.000000"
 preserveAspectRatio="xMidYMid meet">
<metadata>
Created by potrace 1.14, written by Peter Selinger 2001-2017
</metadata>
<g transform="translate(0.000000,512.000000) scale(0.100000,-0.100000)"
fill="#000000" stroke="none">
<path d="M0 2560 l0 -2560 375 0 375 0 0 175 c0 119 -4 181 -12 195 -9 14 -9
24 0 42 6 13 14 52 17 88 8 83 9 89 24 125 7 17 18 50 24 75 7 25 21 59 31 75
118 185 172 250 254 307 151 106 216 148 226 148 7 0 16 4 22 8 14 14 240 102
259 102 9 0 26 6 38 12 25 15 104 36 162 44 22 3 44 9 50 14 14 11 213 41 405
61 125 13 688 6 740 -10 19 -5 91 -17 160 -26 68 -9 129 -20 135 -25 6 -5 28
-11 50 -14 54 -7 127 -27 142 -38 7 -6 14 -5 18 2 5 8 12 7 23 -3 10 -8 37
-21 62 -30 100 -35 134 -48 164 -64 17 -10 34 -17 38 -18 3 0 10 -3 14 -8 4
-4 14 -7 22 -7 7 0 26 -9 40 -20 39 -30 131 -90 137 -90 3 0 40 -28 81 -62 56
-47 92 -88 141 -163 36 -55 74 -112 84 -127 11 -15 19 -34 19 -42 0 -8 5 -27
12 -43 6 -15 10 -32 9 -37 -1 -4 4 -18 12 -30 20 -31 29 -153 27 -398 l-1
-218 371 0 370 0 0 2560 0 2560 -2560 0 -2560 0 0 -2560z m2607 2438 c35 -38
58 -98 49 -133 -3 -13 -18 -37 -32 -54 l-26 -31 77 -133 c100 -173 106 -181
137 -174 23 6 84 79 204 243 42 58 43 63 30 88 -17 34 -11 61 22 86 32 26 72
25 106 -1 37 -29 34 -62 -9 -96 l-36 -28 6 -65 c9 -86 13 -100 33 -100 23 1
35 12 115 102 l69 77 -12 49 c-16 62 -7 97 35 139 26 26 41 33 72 33 37 0 103
-31 103 -49 0 -5 11 -12 25 -15 32 -8 65 -44 65 -71 0 -26 -38 -64 -75 -73
-22 -6 -32 -19 -47 -62 -54 -147 -120 -306 -133 -321 -20 -21 -30 -155 -14
-175 16 -20 2 -82 -21 -94 -13 -7 -22 -26 -26 -51 -4 -22 -13 -43 -20 -46 -8
-3 -44 0 -82 6 -37 6 -77 11 -90 11 -24 0 -52 -21 -52 -38 0 -13 -30 -72 -37
-72 -13 0 -88 24 -93 30 -5 6 -141 31 -184 34 -28 2 -60 -50 -91 -147 -14 -45
-36 -100 -48 -122 -20 -35 -27 -40 -63 -43 -68 -5 -73 14 -30 102 44 92 45
111 5 135 -38 23 -223 97 -265 105 -28 6 -32 4 -48 -32 -10 -22 -28 -50 -40
-64 -13 -13 -26 -37 -28 -54 -3 -16 -16 -54 -28 -84 -12 -30 -25 -66 -30 -80
-5 -14 -9 -18 -9 -9 -1 9 8 42 20 75 20 57 28 152 14 174 -4 6 -25 19 -48 30
-23 11 -66 38 -95 60 -53 41 -75 47 -124 34 -21 -5 -32 -1 -53 21 -42 47 -68
108 -63 151 3 26 -1 51 -13 74 -9 20 -25 62 -34 95 -10 33 -35 101 -55 150
-21 50 -44 110 -51 134 -8 28 -27 57 -50 78 -46 42 -53 75 -27 135 23 54 58
73 119 65 77 -10 125 -62 122 -133 -1 -23 -7 -52 -13 -64 -10 -19 -6 -29 36
-83 27 -34 53 -66 59 -72 6 -5 29 -34 50 -62 22 -29 47 -53 56 -53 19 0 34 48
49 163 l10 79 -30 28 c-35 33 -38 62 -10 90 26 26 80 26 114 -1 29 -23 31 -37
14 -85 -11 -32 -10 -36 38 -96 27 -35 56 -70 65 -78 9 -8 36 -40 59 -70 52
-67 63 -74 82 -52 15 17 148 256 148 265 0 3 -16 14 -35 26 -73 43 -75 123 -7
194 32 33 41 37 87 37 45 0 55 -4 82 -32z m-571 -1049 c38 -23 38 -28 -2 -134
-30 -83 -56 -125 -75 -125 -9 0 -29 10 -43 21 -24 19 -27 27 -24 70 2 38 -1
51 -16 62 -27 20 -14 51 19 45 20 -4 28 2 47 39 26 49 44 53 94 22z m1254 -59
c0 -11 -7 -23 -15 -27 -21 -8 -28 1 -20 26 8 27 35 27 35 1z m-414 -66 c-3 -9
-6 -22 -6 -30 0 -8 -10 -14 -25 -14 -17 0 -23 4 -20 15 3 8 7 22 10 30 2 8 14
15 26 15 15 0 19 -4 15 -16z m-519 -9 c6 -19 -21 -46 -40 -39 -20 7 -22 25 -5
42 14 14 40 12 45 -3z m-467 -117 c19 -10 47 -26 62 -36 25 -15 28 -15 76 11
27 15 56 27 64 27 7 0 76 -25 153 -55 77 -30 156 -58 175 -61 33 -5 36 -3 59
41 30 58 59 71 121 55 25 -7 109 -27 188 -45 165 -39 179 -37 211 29 32 69 31
69 193 50 169 -20 168 -19 168 -38 0 -9 -24 -20 -70 -31 -39 -10 -69 -19 -67
-21 2 -3 35 3 72 11 79 19 96 15 88 -17 -12 -53 -172 -558 -182 -577 -7 -12
-19 -21 -29 -22 -9 -1 1 -5 22 -10 32 -8 43 -6 59 8 37 33 175 218 190 255 9
20 25 43 36 50 12 7 21 18 21 24 0 17 26 35 41 29 21 -8 57 -118 70 -210 6
-44 15 -96 20 -116 12 -46 12 -205 0 -227 -5 -9 -11 -46 -15 -82 -7 -81 -16
-132 -26 -145 -4 -5 -13 -28 -20 -50 -7 -22 -16 -44 -20 -50 -7 -9 -33 -83
-35 -95 0 -3 -12 -21 -26 -40 -15 -19 -32 -46 -39 -60 -29 -55 -118 -154 -190
-209 -70 -54 -270 -161 -301 -161 -8 0 -27 -7 -43 -15 -15 -8 -32 -13 -36 -10
-5 3 -11 1 -14 -4 -10 -16 -178 -35 -306 -35 -120 1 -274 18 -295 33 -5 5 -38
16 -73 25 -84 23 -239 103 -324 168 -62 47 -190 188 -194 213 -1 6 -15 33 -30
60 -16 28 -34 61 -41 75 -33 73 -43 99 -43 113 0 8 -6 19 -13 25 -7 6 -14 25
-15 43 -1 18 -6 37 -11 43 -5 6 -9 42 -10 79 -1 38 -6 78 -12 89 -16 30 3 300
29 401 6 20 7 37 4 37 -3 0 2 8 10 18 9 9 19 32 23 50 4 18 13 36 21 39 16 6
43 -23 44 -47 0 -8 37 -56 83 -106 45 -50 105 -120 132 -155 33 -42 59 -65 75
-68 14 -2 68 11 120 27 52 17 194 56 315 87 l220 55 85 -26 c47 -14 103 -30
125 -36 22 -5 47 -13 56 -18 9 -5 33 -11 53 -14 20 -3 53 -9 73 -12 37 -6 37
-6 16 13 l-21 18 64 235 c36 129 71 241 78 248 7 7 35 20 62 28 27 7 36 12 19
9 -16 -3 -75 -12 -130 -20 -55 -9 -120 -22 -145 -30 -25 -8 -110 -31 -190 -51
-114 -28 -157 -35 -203 -31 -32 3 -63 9 -70 15 -7 5 -19 10 -27 10 -23 2 -116
22 -200 42 -41 10 -95 21 -120 24 -39 5 -41 4 -17 -5 15 -6 27 -18 27 -26 0
-19 -154 -432 -183 -490 l-21 -43 -28 33 c-16 17 -49 60 -74 94 -37 51 -44 66
-38 90 8 32 121 328 136 357 10 19 17 19 118 1 19 -3 1 5 -40 19 -130 42 -194
66 -204 76 -6 6 -3 17 9 30 20 22 48 19 105 -12z m1648 -119 c-12 -57 -22
-118 -23 -136 0 -17 -3 -29 -6 -27 -4 2 -9 -10 -13 -26 -6 -30 -54 -100 -68
-100 -13 0 -9 31 21 155 16 66 34 146 41 178 9 44 17 60 33 67 12 4 26 5 30 1
4 -5 -2 -55 -15 -112z m-1814 62 c7 -11 -69 -260 -84 -275 -6 -6 -12 -3 -16 9
-6 16 46 213 68 258 9 19 24 22 32 8z m546 -126 c10 -12 -1 -52 -55 -212 -37
-109 -71 -205 -76 -214 -11 -22 -69 -43 -83 -29 -10 10 113 404 140 448 17 25
55 29 74 7z"/>
<path d="M3128 3023 c7 -3 16 -2 19 1 4 3 -2 6 -13 5 -11 0 -14 -3 -6 -6z"/>
<path d="M2889 2604 c-156 -141 -285 -198 -449 -198 -80 0 -107 4 -170 28 -91
35 -153 40 -158 13 -5 -26 31 -62 108 -107 85 -50 156 -70 250 -70 161 0 316
67 427 183 81 86 147 202 122 218 -28 18 -48 8 -130 -67z"/>
</g>
</svg>
